<?xml version="1.0" encoding="UTF-8" standalone="no"?>
<!-- Uploaded to: SVG Repo, www.svgrepo.com, Generator: SVG Repo Mixer Tools -->

<svg
   fill="#000000"
   width="800px"
   height="800px"
   viewBox="0 0 32 32"
   version="1.1"
   id="svg1"
   sodipodi:docname="download-cloud-svgrepo-com-v2.svg"
   inkscape:version="1.4.2 (f4327f4, 2025-05-13)"
   xmlns:inkscape="http://www.inkscape.org/namespaces/inkscape"
   xmlns:sodipodi="http://sodipodi.sourceforge.net/DTD/sodipodi-0.dtd"
   xmlns="http://www.w3.org/2000/svg"
   xmlns:svg="http://www.w3.org/2000/svg"
   xmlns:rdf="http://www.w3.org/1999/02/22-rdf-syntax-ns#"
   xmlns:cc="http://creativecommons.org/ns#"
   xmlns:dc="http://purl.org/dc/elements/1.1/">
  <defs
     id="defs1" />
  <sodipodi:namedview
     id="namedview1"
     pagecolor="#ffffff"
     bordercolor="#000000"
     borderopacity="0.25"
     inkscape:showpageshadow="2"
     inkscape:pageopacity="0.0"
     inkscape:pagecheckerboard="0"
     inkscape:deskcolor="#d1d1d1"
     inkscape:zoom="1.00875"
     inkscape:cx="400"
     inkscape:cy="400"
     inkscape:window-width="1920"
     inkscape:window-height="1009"
     inkscape:window-x="1912"
     inkscape:window-y="-8"
     inkscape:window-maximized="1"
     inkscape:current-layer="svg1" />
  <title
     id="title1">download-cloud</title>
  <path
     d="m 0,16 q 0,2.912 1.824,5.088 1.824,2.176 4.576,2.752 0.032,0 0.032,-0.032 v -0.064 q 0,0 0.032,-0.032 0.544,-1.344 1.344,-2.176 0.8,-0.832 2.208,-1.184 v -2.336 q 0,-2.496 1.728,-4.256 Q 13.472,12 16,12 q 2.528,0 4.256,1.76 1.728,1.76 1.76,4.256 v 2.336 q 1.376,0.384 2.176,1.216 0.8,0.832 1.344,2.144 L 25.632,24 h 0.384 Q 28.48,24 30.24,22.24 32,20.48 32,18.016 V 16 q 0,-2.464 -1.76,-4.224 -1.76,-1.76 -4.224,-1.76 -0.096,0 -0.32,0.032 0.32,-1.152 0.32,-2.048 0,-3.296 -2.368,-5.632 Q 21.28,0.032 18.016,0 15.136,0 12.96,1.824 10.784,3.648 10.176,6.368 9.024,6.016 8,6.016 4.704,6.016 2.336,8.352 -0.032,10.688 0,14.016 Z m 10.016,9.824 q -0.096,0.928 0.576,1.6 l 4,4 Q 15.168,32 16,32 q 0.832,0 1.408,-0.576 l 4,-4 q 0.672,-0.672 0.608,-1.6 -0.064,-0.32 -0.16,-0.576 Q 21.632,24.672 21.12,24.352 20.608,24.032 20,24 h -1.984 v -5.984 q 0,-0.832 -0.608,-1.408 Q 16.8,16.032 16,16 q -0.8,-0.032 -1.408,0.608 -0.608,0.64 -0.576,1.408 V 24 H 12 q -0.608,0 -1.12,0.352 -0.512,0.352 -0.736,0.896 -0.096,0.288 -0.128,0.576 z"
     id="path1"
     style="fill:#7117b2;fill-opacity:1" />
  <metadata
     id="metadata1">
    <rdf:RDF>
      <cc:Work
         rdf:about="">
        <dc:title>download-cloud</dc:title>
      </cc:Work>
    </rdf:RDF>
  </metadata>
</svg>
